<?xml version="1.0" encoding="iso-8859-1"?>
<!-- Generator: Adobe Illustrator 19.0.0, SVG Export Plug-In . SVG Version: 6.00 Build 0)  -->
<svg version="1.1" id="Layer_1" xmlns="http://www.w3.org/2000/svg" xmlns:xlink="http://www.w3.org/1999/xlink" x="0px" y="0px"
	 viewBox="0 0 473.935 473.935" style="enable-background:new 0 0 473.935 473.935;" xml:space="preserve">
<circle style="fill:#A2D4DE;" cx="236.967" cy="236.967" r="236.967"/>
<path style="fill:#D7DABA;" d="M394.463,310.886c0,7.237-5.867,13.104-13.104,13.104H98.596c-7.24,0-13.104-5.867-13.104-13.104
	V153.683c0-7.237,5.863-13.104,13.104-13.104h282.759c7.237,0,13.104,5.867,13.104,13.104v157.204H394.463z"/>
<path style="fill:#0C808B;" d="M394.463,310.886c0,7.237-5.867,13.104-13.104,13.104H98.596c-7.24,0-13.104-5.867-13.104-13.104
	V178.741h308.967v132.145H394.463z"/>
<g>
	<path style="fill:#D7DABA;" d="M281.674,257.794c-1.28-2.544-9.744-0.453-9.744-0.453c-7.783,1.878-19.693-2.309-19.693-2.309
		c-3.63-2.514-6.507-9.684-8.385-15.734c1.807,0.958,3.888,1.463,6.069,1.366c2.181-0.086,4.183-0.767,5.893-1.848
		c0.591,0.475,1.302,0.767,2.054,0.73c1.871-0.075,3.308-1.979,3.203-4.217c-0.026-0.629-0.172-1.197-0.397-1.714
		c1.268-0.341,2.17-1.515,2.11-2.885l-0.153-3.633c-0.056-1.246-0.891-2.264-2.013-2.601c-1.774-4.726-6.413-7.989-11.727-7.753
		c-5.291,0.225-9.616,3.85-10.993,8.677c-0.887-0.449-1.852-0.677-2.862-0.737c0.483-1.414,0.539-2.986,0-4.528
		c-1.268-3.641-5.227-5.527-8.861-4.262l-34.877,12.352c-3.633,1.25-5.53,5.235-4.266,8.853c0.509,1.459,1.474,2.619,2.657,3.431
		c-1.875,0.554-3.596,1.029-5.16,1.452c-15.704-7.978-22.896-29.414-23.682-31.895c1.272-0.718,2.114-1.534,1.923-2.413
		c-0.651-2.844-23.671-10.971-30.555-19.543l-4.995-1.081c0,0,8.834,17.613,25.859,25.725c1.759,14.331,8.468,25.803,12.007,31.001
		c-11.139-2.844-23.798-10.567-25.968-11.929c0.468-0.876,1.381-3.263-1.706-4.288c-2.481-0.823-4.887,0.655-7.592,4.15
		c-2.219,2.859-12.363,22.78-26.821,25.751l-2.713,3.491c0,0,24.138-2.077,34.739-22.342l0.165-0.262
		c19.525,18.181,44.95,21.736,44.95,21.736c28.965-1.059,53.635-13.242,53.635-13.242c10.062,15.727,15.85,17.033,15.85,17.033
		c14.713,2.851,27.158,1.441,27.158,1.441C283.646,263.111,281.674,257.794,281.674,257.794z"/>
	<path style="fill:#D7DABA;" d="M264.806,231.205c0.041,0.853,0.752,1.504,1.601,1.463c0.853-0.041,1.504-0.745,1.478-1.594
		c-0.045-0.857-0.76-1.512-1.609-1.478C265.427,229.626,264.776,230.344,264.806,231.205z"/>
	<path style="fill:#D7DABA;" d="M265.495,222.906c0.067,1.302,1.542,2.297,3.319,2.219c1.785-0.079,3.166-1.186,3.109-2.496
		c-0.056-1.302-1.534-2.301-3.308-2.223C266.831,220.492,265.442,221.596,265.495,222.906z"/>
	<path style="fill:#D7DABA;" d="M265.652,216.298c2.874-0.127,5.126-1.71,5.048-3.543c-0.075-1.811-2.458-3.199-5.328-3.072
		c-2.877,0.123-5.126,1.695-5.051,3.517C260.402,215.029,262.786,216.414,265.652,216.298z"/>
</g>
<path style="fill:#BFC1A9;" d="M302.692,150.465H181.813c-5.182,0-9.381,4.202-9.381,9.384c0,5.182,4.198,9.377,9.381,9.377h120.882
	c5.182,0,9.377-4.195,9.377-9.377C312.073,154.667,307.874,150.465,302.692,150.465z"/>
<g>
	<path style="fill:#D7DABA;" d="M334.826,232.301c1.594-1.022,3.521-2.866,2.458-5.373c0,0-4.056-2.294-6.967,3.97
		c-1.65-1.25-3.263-2.148-4.808-2.683c0.086-0.109,0.935-1.287-0.101-1.901c-1.033-0.599-3.368,1.081-3.626,1.272
		c-0.202,0.007-0.4-0.007-0.599,0.007c-5.86,0.49-10.148,4.034-10.694,5.789c-0.041,0.123,1.661,0.228,1.587,0.703
		c-0.101,0.621-1.59-0.322-1.62-0.168c-0.019,0.131-0.015,0.198,0.079,0.438c1.519,4.064,7.229,5.313,10.282,5.407
		c0.389,0.015,0.771-0.007,1.149-0.037c0.644,0.445,2.541,1.665,3.442,1.141c1.093-0.636,0.09-1.916,0.09-1.916l-0.311,0.052
		c2.746-1.01,4.969-2.806,6.335-4.131c4.172,5.56,7.674,2.455,7.674,2.455C339.799,234.202,336.596,232.822,334.826,232.301z"/>
	<path style="fill:#D7DABA;" d="M358.624,212.893c1.594-1.021,3.521-2.866,2.458-5.373c0,0-4.052-2.301-6.967,3.97
		c-1.65-1.257-3.263-2.148-4.804-2.683c0.082-0.116,0.935-1.287-0.105-1.901c-1.029-0.599-3.368,1.081-3.626,1.272
		c-0.202,0.007-0.4-0.007-0.599,0.007c-5.856,0.483-10.148,4.034-10.694,5.789c-0.037,0.123,1.665,0.228,1.587,0.703
		c-0.101,0.614-1.59-0.322-1.616-0.168c-0.022,0.131-0.015,0.198,0.079,0.438c1.519,4.056,7.229,5.313,10.282,5.407
		c0.389,0.007,0.775-0.007,1.149-0.037c0.644,0.445,2.544,1.665,3.442,1.141c1.096-0.644,0.09-1.916,0.09-1.916l-0.307,0.052
		c2.743-1.01,4.965-2.806,6.335-4.131c4.172,5.56,7.671,2.455,7.671,2.455C363.597,214.794,360.39,213.413,358.624,212.893z"/>
	<path style="fill:#D7DABA;" d="M319.246,205.409c1.594-1.022,3.521-2.874,2.458-5.373c0,0-4.052-2.301-6.967,3.97
		c-1.654-1.257-3.267-2.148-4.801-2.69c0.079-0.101,0.932-1.28-0.108-1.893c-1.029-0.599-3.368,1.081-3.626,1.272
		c-0.202,0.007-0.4-0.007-0.599,0.007c-5.856,0.483-10.148,4.034-10.694,5.789c-0.034,0.123,1.665,0.228,1.587,0.703
		c-0.097,0.621-1.59-0.322-1.616-0.168c-0.022,0.131-0.011,0.198,0.079,0.438c1.519,4.056,7.229,5.313,10.282,5.407
		c0.389,0.007,0.775-0.007,1.152-0.037c0.64,0.445,2.541,1.665,3.439,1.134c1.093-0.636,0.09-1.908,0.09-1.908l-0.307,0.052
		c2.743-1.01,4.965-2.806,6.335-4.131c4.172,5.56,7.671,2.455,7.671,2.455C324.218,207.31,321.015,205.929,319.246,205.409z"/>
	<path style="fill:#D7DABA;" d="M135.067,316.054c0,0-2.529-39.18-12.636-44.228c0,0-3.794-7.585,1.265-5.691
		c0,0,14.533,21.485,15.798,49.294L135.067,316.054z"/>
	<path style="fill:#D7DABA;" d="M147.602,316.054c0,0,2.533-39.18,12.644-44.228c0,0,3.79-7.585-1.268-5.691
		c0,0-14.533,21.485-15.794,49.294L147.602,316.054z"/>
	<path style="fill:#D7DABA;" d="M143.924,316.353c0,0-4.082-26.148,1.826-30.956c0,0,1.384-5.553-1.661-3.551
		c0,0-6.413,16.269-3.166,34.75L143.924,316.353z"/>
	<path style="fill:#D7DABA;" d="M132.164,289.502c1.186-6.08,1.497-12.198-1.025-15.046c0,0-0.55-5.942,2.597-2.997
		c0,0,2.619,10.997,0.382,24.03L132.164,289.502z"/>
	<path style="fill:#D7DABA;" d="M135.842,312.144c-5.007-6.687-10.847-12.527-15.981-12.569c0,0-6.44-4.823-0.647-5.306
		c0,0,13.369,7.315,24.367,21.339L135.842,312.144z"/>
	<path style="fill:#D7DABA;" d="M146.476,312.57c4.269-7.124,9.332-13.512,14.039-14.084c0,0,5.673-5.437,0.34-5.306
		c0,0-11.918,8.64-21.313,23.626L146.476,312.57z"/>
	<path style="fill:#D7DABA;" d="M135.221,309.42c-2.118-8.075-5.871-17.276-11.656-19.674c0,0-5.066-8.419,1.703-6.301
		c0,0,10.915,14.975,15.82,32.097L135.221,309.42z"/>
	<path style="fill:#D7DABA;" d="M147.49,292.668c1.186-6.088,1.497-12.206-1.029-15.053c0,0-0.55-5.942,2.597-2.997
		c0,0,2.623,11.005,0.385,24.037L147.49,292.668z"/>
	<path style="fill:#D7DABA;" d="M144.803,310.83c1.19-6.08,1.5-12.198-1.033-15.046c0,0-0.546-5.942,2.601-2.997
		c0,0,2.619,10.997,0.385,24.03L144.803,310.83z"/>
	<path style="fill:#D7DABA;" d="M140.691,316.099c0,0-5.676-36.329,2.541-43.008c0,0,1.923-7.712-2.309-4.947
		c0,0-8.913,22.612-4.4,48.284L140.691,316.099z"/>
	<path style="fill:#D7DABA;" d="M149.481,315.249c0.142-0.183,0.284-0.367,0.284-0.576c0-1.089-2.129-1.957-4.76-1.957
		c-0.022,0-0.037,0-0.06,0c-0.864-0.367-2.073-0.606-3.42-0.606c-1.31,0-2.492,0.221-3.353,0.569
		c-0.449-0.067-0.909-0.108-1.411-0.108c-2.477,0-4.449,0.782-4.673,1.777c-1.137,0.359-1.92,0.898-1.92,1.542
		c0,0.973,1.74,1.732,3.978,1.893c0.771,0.659,2.376,1.126,4.266,1.126c1.789,0,3.278-0.423,4.097-1.022
		c0.872,0.43,2.129,0.722,3.6,0.722c2.623,0,4.76-0.883,4.76-1.964C150.865,316.099,150.338,315.609,149.481,315.249z"/>
</g>
<circle style="fill:#FFFFFF;" cx="352.102" cy="287.22" r="25.059"/>
<circle style="fill:#1467A8;" cx="352.102" cy="287.22" r="23.805"/>
<g>
	<path style="fill:#FFFFFF;" d="M352.095,310.396c-4.879,0-7.514-11.94-7.514-23.177s2.634-23.177,7.514-23.177
		c4.887,0,7.521,11.94,7.521,23.177S356.982,310.396,352.095,310.396z M352.095,265.293c-2.96,0-6.264,9.003-6.264,21.927
		c0,12.924,3.304,21.927,6.264,21.927c2.967,0,6.268-9.003,6.268-21.927C358.362,274.295,355.062,265.293,352.095,265.293z"/>
	<path style="fill:#FFFFFF;" d="M352.095,310.396c-9.325,0-16.913-10.395-16.913-23.177c0-12.778,7.585-23.177,16.913-23.177
		c9.332,0,16.917,10.398,16.917,23.177C369.015,300.002,361.431,310.396,352.095,310.396z M352.095,265.293
		c-8.681,0-15.745,9.837-15.745,21.927s7.064,21.927,15.745,21.927c8.688,0,15.749-9.837,15.749-21.927
		S360.787,265.293,352.095,265.293z"/>
	<path style="fill:#FFFFFF;" d="M371.96,293.12c-0.307-0.659-1.16-0.659-1.441-0.659c-0.629,0-1.31,0.153-1.336,0.153
		c-0.202,0.052-0.441,0.071-0.707,0.071c-1.25,0-2.705-0.494-3.068-0.617c-0.352-0.299-0.722-0.995-1.066-1.957
		c0.116,0.015,0.236,0.022,0.363,0.022h0.004c0.43-0.007,0.857-0.109,1.25-0.284c0.146,0.064,0.299,0.09,0.46,0.09
		c0.329-0.004,0.644-0.142,0.883-0.389c0.281-0.288,0.438-0.696,0.43-1.119c0-0.022,0-0.037,0-0.06
		c0.251-0.228,0.4-0.554,0.393-0.921l-0.015-0.775c-0.007-0.412-0.217-0.782-0.543-1.003c-0.501-1.152-1.643-1.901-2.964-1.901
		c-0.943,0.007-1.8,0.43-2.387,1.126c-0.004-0.015-0.007-0.037-0.015-0.052c-0.344-1.081-1.538-1.714-2.645-1.362l-7.543,2.447
		c-0.535,0.153-0.969,0.524-1.231,1.018c-0.258,0.505-0.311,1.081-0.142,1.624c0.022,0.052,0.041,0.105,0.06,0.161
		c-2.507-1.534-3.809-4.842-4.21-6.05c0.326-0.307,0.352-0.629,0.307-0.868c-0.101-0.505-0.636-0.819-2.309-1.732
		c-1.471-0.797-3.484-1.89-4.239-2.889l-0.131-0.176l-2.522-0.61l0.546,1.16c0.079,0.157,1.822,3.835,5.373,5.796
		c0.247,2.073,0.95,3.869,1.616,5.186c-1.377-0.584-2.694-1.366-3.416-1.826c0.015-0.183-0.007-0.359-0.067-0.528
		c-0.086-0.228-0.292-0.539-0.793-0.715c-0.939-0.352-1.852,0.438-2.335,1.029c-0.082,0.094-0.221,0.303-0.393,0.569
		c-0.827,1.242-2.761,4.157-5.137,4.584l-0.228,0.041l-1.631,1.998l1.396-0.086c0.221-0.007,5.044-0.348,7.712-4.288
		c4.079,3.659,9.066,4.524,9.392,4.572c5.246-0.052,9.833-1.759,11.319-2.372c1.931,3.061,3.166,3.506,3.413,3.566
		c1.931,0.43,3.682,0.52,4.816,0.52c0.745,0,1.182-0.037,1.31-0.06c0.666-0.198,1.134-0.546,1.381-1.025
		C372.203,293.873,372.005,293.251,371.96,293.12z"/>
</g>
<path style="fill:#DA1F26;" d="M371.406,293.379c-0.262-0.554-2.092-0.161-2.092-0.161c-1.68,0.367-4.21-0.606-4.21-0.606
	c-0.76-0.558-1.343-2.114-1.706-3.42c0.385,0.217,0.823,0.337,1.295,0.329c0.468-0.011,0.902-0.146,1.276-0.363
	c0.123,0.097,0.273,0.172,0.438,0.165c0.397,0,0.715-0.4,0.707-0.883c-0.004-0.135-0.03-0.254-0.079-0.363
	c0.273-0.071,0.479-0.318,0.471-0.61l-0.015-0.778c-0.004-0.266-0.176-0.494-0.415-0.576c-0.352-1.018-1.328-1.744-2.466-1.729
	s-2.088,0.775-2.41,1.8c-0.187-0.105-0.393-0.157-0.61-0.176c0.112-0.303,0.135-0.64,0.026-0.969
	c-0.247-0.79-1.089-1.22-1.871-0.973l-7.551,2.455c-0.79,0.236-1.22,1.081-0.973,1.863c0.101,0.314,0.307,0.576,0.554,0.748
	c-0.408,0.116-0.778,0.202-1.119,0.288c-3.323-1.807-4.737-6.447-4.891-6.978c0.277-0.146,0.457-0.318,0.423-0.505
	c-0.12-0.614-5.014-2.492-6.44-4.374l-1.063-0.258c0,0,1.792,3.828,5.388,5.665c0.296,3.087,1.673,5.583,2.398,6.724
	c-2.372-0.681-5.044-2.413-5.497-2.705c0.101-0.191,0.314-0.703-0.344-0.935c-0.528-0.195-1.051,0.116-1.65,0.849
	c-0.498,0.595-2.784,4.808-5.901,5.366l-0.599,0.73c0,0,5.186-0.307,7.573-4.584l0.037-0.06c4.082,4.011,9.515,4.917,9.515,4.917
	c6.215-0.064,11.577-2.529,11.577-2.529c2.065,3.435,3.297,3.742,3.297,3.742c3.143,0.703,5.818,0.468,5.818,0.468
	C371.792,294.524,371.406,293.379,371.406,293.379z"/>
<g>
</g>
<g>
</g>
<g>
</g>
<g>
</g>
<g>
</g>
<g>
</g>
<g>
</g>
<g>
</g>
<g>
</g>
<g>
</g>
<g>
</g>
<g>
</g>
<g>
</g>
<g>
</g>
<g>
</g>
</svg>
